<svg width="45" height="39" viewBox="0 0 45 39" fill="none" xmlns="http://www.w3.org/2000/svg">
<path d="M35.9204 22.0142C35.6198 21.7424 35.2367 21.5572 34.8197 21.4822C34.4027 21.4073 33.9705 21.4458 33.5777 21.5929C33.1848 21.74 32.8491 21.9892 32.6128 22.3089C32.3766 22.6286 32.2504 23.0045 32.2503 23.389V25.3335H30.1906L25.6756 19.5L30.1906 13.6665H32.2503V15.611C32.2504 15.9955 32.3766 16.3714 32.6128 16.6911C32.8491 17.0108 33.1848 17.26 33.5777 17.4071C33.9705 17.5542 34.4027 17.5927 34.8197 17.5178C35.2367 17.4428 35.6198 17.2576 35.9204 16.9858L42.3705 11.1523C42.7736 10.7877 43 10.2932 43 9.77755C43 9.26194 42.7736 8.76744 42.3705 8.40279L35.9204 2.56932C35.6198 2.29746 35.2367 2.11234 34.8197 2.03734C34.4027 1.96235 33.9705 2.00085 33.5777 2.14799C33.1848 2.29513 32.8491 2.5443 32.6128 2.86399C32.3766 3.18369 32.2504 3.55955 32.2503 3.94408V5.88857H27.9503C27.2587 5.88838 26.5773 6.03905 25.9639 6.3278C25.3504 6.61654 24.823 7.03484 24.4264 7.54722L20.4252 12.7176L16.424 7.54722C16.0274 7.03484 15.5 6.61654 14.8866 6.3278C14.2731 6.03905 13.5917 5.88838 12.9001 5.88857H4.30005C3.1596 5.88857 2.06587 6.2983 1.25945 7.02762C0.45304 7.75695 0 8.74613 0 9.77755C0 10.809 0.45304 11.7981 1.25945 12.5275C2.06587 13.2568 3.1596 13.6665 4.30005 13.6665H10.6598L15.1749 19.5L10.6598 25.3335H4.30005C3.1596 25.3335 2.06587 25.7432 1.25945 26.4725C0.453039 27.2019 0 28.191 0 29.2225C0 30.2539 0.453039 31.2431 1.25945 31.9724C2.06587 32.7017 3.1596 33.1114 4.30005 33.1114H12.9001C13.5917 33.1116 14.2731 32.9609 14.8866 32.6722C15.5 32.3835 16.0274 31.9652 16.424 31.4528L20.4252 26.2824L24.4264 31.4528C24.823 31.9652 25.3504 32.3835 25.9639 32.6722C26.5773 32.9609 27.2587 33.1116 27.9503 33.1114H32.2503V35.0559C32.2504 35.4404 32.3766 35.8163 32.6128 36.136C32.8491 36.4557 33.1848 36.7049 33.5777 36.852C33.9705 36.9991 34.4027 37.0377 34.8197 36.9627C35.2367 36.8877 35.6198 36.7025 35.9204 36.4307L42.3705 30.5972C42.7736 30.2326 43 29.7381 43 29.2225C43 28.7068 42.7736 28.2123 42.3705 27.8477L35.9204 22.0142Z" fill="url(#paint0_linear_122_4426)" stroke="#231526" stroke-width="2.5"/>
<defs>
<linearGradient id="paint0_linear_122_4426" x1="-12.2652" y1="9.51673" x2="23.2436" y2="53.1418" gradientUnits="userSpaceOnUse">
<stop stop-color="#FF8059"/>
<stop offset="1" stop-color="#FFBC8F"/>
</linearGradient>
</defs>
</svg>
