<svg width="50" height="42" viewBox="0 0 50 42" fill="none" xmlns="http://www.w3.org/2000/svg">
<path fill-rule="evenodd" clip-rule="evenodd" d="M25.6395 0.549874C21.6597 0.41734 17.6389 1.50312 14.1675 3.82027C10.2687 6.42552 7.54398 10.2727 6.28896 14.5735C5.94238 14.5312 5.52736 14.5499 5.03456 14.6893C3.19465 15.2113 1.81083 16.7189 1.18861 18.0468C0.381584 19.7772 0.0412281 22.0657 0.40025 24.4283C0.756784 26.7834 1.75172 28.7247 2.99616 29.93C4.24434 31.1358 5.65367 31.5278 7.05367 31.2335C9.13812 30.7886 10.1716 30.4557 9.87981 28.5138L8.46674 19.1002C8.75172 14.0054 11.3893 9.20934 15.8009 6.26001C21.7058 2.31574 29.4475 2.56836 35.0798 6.89218C38.9979 9.89627 41.2728 14.3974 41.5354 19.1226L40.5473 25.7076C38.3434 31.7388 32.8796 35.9164 26.5572 36.5093H22.3473C21.2609 36.5093 20.386 37.3842 20.386 38.4693V39.5035C20.386 40.5893 21.2609 41.4641 22.3473 41.4641H27.6555C28.7412 41.4641 29.6123 40.5893 29.6123 39.5035V38.9628C34.3798 37.7992 38.5412 34.8692 41.251 30.783L42.9515 31.2341C44.3354 31.5932 45.7615 31.1358 47.0091 29.9306C48.2535 28.7247 49.2478 26.784 49.605 24.4289C49.9652 22.0663 49.6149 19.7815 48.8172 18.0474C48.0164 16.3133 46.8236 15.2119 45.4467 14.8168C44.8699 14.6507 44.2439 14.5897 43.7069 14.5735C42.572 10.6846 40.2355 7.14792 36.8681 4.5657C33.5572 2.02516 29.6192 0.68054 25.6395 0.549874Z" fill="url(#paint0_linear_122_4422)"/>
<path fill-rule="evenodd" clip-rule="evenodd" d="M31.8543 17.4861C33.2574 17.4861 34.3948 18.6235 34.3979 20.0303C34.3948 21.4334 33.2574 22.574 31.8543 22.574C30.4474 22.574 29.3069 21.4334 29.3069 20.0303C29.3069 18.6241 30.4481 17.4861 31.8543 17.4861ZM25.0036 17.4861C26.4098 17.4861 27.5473 18.6235 27.5473 20.0303C27.5473 21.4334 26.4098 22.574 25.0036 22.574C23.5961 22.574 22.4587 21.4334 22.4587 20.0303C22.4587 18.6241 23.5961 17.4861 25.0036 17.4861ZM18.1554 17.4861C19.5585 17.4861 20.6991 18.6235 20.6991 20.0303C20.6991 21.4334 19.5585 22.574 18.1554 22.574C16.7492 22.574 15.6112 21.4334 15.6112 20.0303C15.6112 18.6241 16.7492 17.4861 18.1554 17.4861ZM25.0036 6.55859C17.5432 6.55859 11.5312 12.3726 11.5312 20.0303C11.5312 23.7083 12.9219 26.9588 15.1874 29.3437L14.3835 32.9477C14.1185 34.1336 14.941 34.9313 16.0069 34.3377L19.5262 32.3746C21.1987 33.1007 23.0486 33.5021 25.0036 33.5021C32.4665 33.5021 38.4747 27.6917 38.4747 20.0303C38.4747 12.3726 32.4665 6.55859 25.0036 6.55859Z" fill="url(#paint1_linear_122_4422)"/>
<defs>
<linearGradient id="paint0_linear_122_4422" x1="-13.8582" y1="9.32827" x2="27.7905" y2="59.6921" gradientUnits="userSpaceOnUse">
<stop stop-color="#FF5977"/>
<stop offset="1" stop-color="#E985FF"/>
</linearGradient>
<linearGradient id="paint1_linear_122_4422" x1="3.84599" y1="12.5677" x2="32.8158" y2="40.4642" gradientUnits="userSpaceOnUse">
<stop stop-color="#FF5977"/>
<stop offset="1" stop-color="#E985FF"/>
</linearGradient>
</defs>
</svg>
