<svg width="19" height="18" viewBox="0 0 19 18" fill="none" xmlns="http://www.w3.org/2000/svg">
<g clip-path="url(#clip0_342_775)">
<path d="M15.0943 4.51855H14.6995V7.58772C14.6995 9.86162 12.8495 11.7116 10.5756 11.7116H4.68213V12.1065C4.68213 13.7988 6.05899 15.1756 7.7513 15.1756H14.0561L17.2986 17.8777C17.3951 17.9581 17.5151 17.9999 17.6362 17.9999C17.9261 17.9999 18.1635 17.7646 18.1635 17.4725V7.58772C18.1635 5.89281 16.7922 4.51855 15.0943 4.51855Z" fill="#6F6B70"/>
<path d="M13.6449 7.58784V3.06917C13.6449 1.37123 12.2708 0 10.5757 0H3.23274C1.53481 0 0.163574 1.37411 0.163574 3.06917V12.954C0.163574 13.2459 0.400879 13.4813 0.690781 13.4813C0.811905 13.4813 0.931931 13.4396 1.02847 13.359L4.27095 10.657H10.5757C12.268 10.657 13.6449 9.28029 13.6449 7.58784ZM6.90424 8.39767C6.6131 8.39767 6.37689 8.16147 6.37689 7.87033C6.37689 7.57919 6.6131 7.34299 6.90424 7.34299C7.19524 7.34299 7.43158 7.57919 7.43158 7.87033C7.43158 8.16147 7.19524 8.39767 6.90424 8.39767ZM7.43158 6.06541V6.17583C7.43158 6.46696 7.19537 6.70317 6.90424 6.70317C6.61296 6.70317 6.37689 6.46696 6.37689 6.17583V5.61099C6.37689 5.31972 6.61296 5.08365 6.90424 5.08365C7.39203 5.08365 7.78891 4.68663 7.78891 4.19884C7.78891 3.71091 7.39203 3.31403 6.90424 3.31403C6.66748 3.31403 6.44542 3.40604 6.27843 3.57303C6.11143 3.74002 6.01942 3.96208 6.01942 4.19815C6.01942 4.48943 5.78336 4.72591 5.49208 4.72591C5.20081 4.72591 4.96474 4.48997 4.96474 4.19884V4.19815C4.96474 3.68042 5.16647 3.19345 5.53259 2.82733C5.89885 2.46107 6.38568 2.25934 6.90355 2.25934C7.97362 2.25934 8.8436 3.12946 8.8436 4.19884C8.8436 5.08557 8.24553 5.83525 7.43158 6.06541Z" fill="white"/>
</g>
<defs>
<clipPath id="clip0_342_775">
<rect width="18" height="18" fill="white" transform="translate(0.163574)"/>
</clipPath>
</defs>
</svg>
