<svg width="18" height="17" viewBox="0 0 18 17" fill="none" xmlns="http://www.w3.org/2000/svg">
<path fill-rule="evenodd" clip-rule="evenodd" d="M17.629 3.81151C17.6876 3.52001 17.552 3.22484 17.2944 3.07817C17.0359 2.93242 16.7123 2.96817 16.4923 3.16801C16.4923 3.16801 15.5334 4.03976 14.4518 5.02334C13.9458 5.48351 13.2445 5.66226 12.5799 5.50184C11.9154 5.34142 11.3736 4.86201 11.1334 4.22126L9.80703 0.685674C9.7062 0.417091 9.45045 0.239258 9.16353 0.239258C8.87661 0.239258 8.62086 0.417091 8.52003 0.685674L7.19361 4.22126C6.95345 4.86201 6.4117 5.34142 5.74711 5.50184C5.08253 5.66226 4.38128 5.48351 3.87528 5.02334C2.79361 4.03976 1.83478 3.16801 1.83478 3.16801C1.61478 2.96817 1.2912 2.93242 1.0327 3.07817C0.775114 3.22484 0.639447 3.52001 0.698114 3.81151C0.698114 3.81151 1.71836 8.91276 2.23628 11.5042C2.47186 12.683 3.50678 13.5309 4.70853 13.5309H13.6185C14.8203 13.5309 15.8552 12.683 16.0908 11.5042C16.6087 8.91276 17.629 3.81151 17.629 3.81151Z" fill="white"/>
<path fill-rule="evenodd" clip-rule="evenodd" d="M14.6636 14.9062H3.66357C3.28407 14.9062 2.97607 15.2142 2.97607 15.5938C2.97607 15.9733 3.28407 16.2812 3.66357 16.2812H14.6636C15.0431 16.2812 15.3511 15.9733 15.3511 15.5938C15.3511 15.2142 15.0431 14.9062 14.6636 14.9062Z" fill="#6F6B70"/>
</svg>
