<svg width="46" height="46" viewBox="0 0 46 46" fill="none" xmlns="http://www.w3.org/2000/svg">
<path d="M15.5426 22.1914C12.57 22.1914 10.1517 19.7731 10.1517 16.8006C10.1517 13.828 12.57 11.4097 15.5426 11.4097C18.5151 11.4097 20.9335 13.828 20.9335 16.8006C20.9335 19.7731 18.5151 22.1914 15.5426 22.1914ZM15.5426 15.0036C14.5517 15.0036 13.7456 15.8097 13.7456 16.8006C13.7456 17.7914 14.5517 18.5975 15.5426 18.5975C16.5334 18.5975 17.3396 17.7914 17.3396 16.8006C17.3396 15.8097 16.5335 15.0036 15.5426 15.0036ZM30.3676 34.7702C27.395 34.7702 24.9767 32.3519 24.9767 29.3793C24.9767 26.4068 27.395 23.9884 30.3676 23.9884C33.3401 23.9884 35.7585 26.4068 35.7585 29.3793C35.7585 32.3519 33.3401 34.7702 30.3676 34.7702ZM30.3676 27.5823C29.3767 27.5823 28.5706 28.3885 28.5706 29.3793C28.5706 30.3702 29.3767 31.1763 30.3676 31.1763C31.3584 31.1763 32.1645 30.3702 32.1645 29.3793C32.1645 28.3885 31.3585 27.5823 30.3676 27.5823ZM19.2147 33.8717L30.8707 12.3081H26.7854L15.1294 33.8717H19.2147ZM18.0117 46.0001C17.6317 46.0001 17.2502 45.9509 16.8771 45.8509C15.6855 45.5316 14.6773 44.72 14.1109 43.6242L12.9207 41.322C12.7775 41.045 12.4846 40.8755 12.1725 40.89L9.58367 41.0104C8.35068 41.0681 7.14437 40.6003 6.27213 39.728C5.39988 38.8558 4.93249 37.6488 4.98981 36.4165L5.1103 33.8276C5.12476 33.5163 4.95513 33.2225 4.67822 33.0794L2.37595 31.8892C1.28015 31.3226 0.468555 30.3144 0.149324 29.1228C-0.169997 27.9312 0.0287475 26.6523 0.694524 25.6139L2.09319 23.4321C2.26139 23.1696 2.26139 22.8305 2.09319 22.568L0.694344 20.3863C0.0285678 19.3478 -0.170177 18.0689 0.149144 16.8774C0.468375 15.6858 1.27998 14.6775 2.37577 14.1109L4.67804 12.9207C4.95495 12.7776 5.12458 12.4838 5.11012 12.1724L4.98963 9.58358C4.93231 8.35131 5.3997 7.14428 6.27195 6.27204C7.1442 5.39979 8.35149 4.93222 9.5834 4.98972L12.1723 5.11012C12.4826 5.12494 12.7773 4.95504 12.9205 4.67813L14.1107 2.37585C14.6772 1.28006 15.6854 0.468465 16.8769 0.149144C18.0687 -0.170177 19.3476 0.0285678 20.386 0.694344L22.5678 2.09301C22.8304 2.2613 23.1694 2.26139 23.4319 2.09301L25.6137 0.694344C26.6521 0.0285678 27.9311 -0.170177 29.1228 0.149144C30.3144 0.468465 31.3226 1.28006 31.8891 2.37585L33.0792 4.67804C33.2224 4.95504 33.5145 5.12467 33.8274 5.11012L36.4162 4.98972C37.6502 4.93258 38.8556 5.39979 39.7278 6.27204C40.6 7.14428 41.0674 8.35131 41.0101 9.58358L40.8896 12.1725C40.8751 12.4838 41.0448 12.7776 41.3217 12.9207L43.624 14.1109C44.7197 14.6774 45.5314 15.6857 45.8506 16.8773C46.1699 18.0688 45.9712 19.3477 45.3054 20.3862L43.9067 22.568C43.7385 22.8305 43.7385 23.1696 43.9067 23.4321L45.3054 25.6139C45.9712 26.6523 46.1699 27.9312 45.8506 29.1228C45.5314 30.3144 44.7197 31.3226 43.624 31.8892L41.3217 33.0794C41.0448 33.2226 40.8751 33.5164 40.8896 33.8278L41.0101 36.4166C41.0674 37.6489 40.6 38.8559 39.7278 39.7281C38.8554 40.6004 37.6481 41.068 36.4163 41.0104L33.8274 40.89C33.5171 40.8759 33.2224 41.0451 33.0792 41.322L31.8891 43.6243C31.3226 44.7201 30.3144 45.5317 29.1228 45.851C27.9311 46.1704 26.6522 45.9715 25.6137 45.3058L23.4319 43.9072C23.1694 43.7389 22.8304 43.7388 22.5678 43.9072L20.386 45.3059C19.6728 45.7631 18.8458 46 18.0117 46.0001ZM12.2084 37.2953C13.8417 37.2953 15.3587 38.2118 16.1133 39.6718L17.3034 41.9739C17.4447 42.2472 17.6797 42.3453 17.8073 42.3796C17.935 42.4137 18.1875 42.4462 18.4465 42.2803L20.6283 40.8815C22.069 39.958 23.9309 39.9579 25.3716 40.8815L27.5534 42.2802C27.8123 42.4461 28.0648 42.4136 28.1926 42.3795C28.3202 42.3453 28.5552 42.2471 28.6965 41.9739L29.8866 39.6716C30.6724 38.1514 32.2856 37.2206 33.9946 37.3L36.5834 37.4204C36.889 37.4347 37.0932 37.2801 37.1866 37.1868C37.2799 37.0934 37.4345 36.8909 37.4202 36.5835L37.2997 33.9947C37.2203 32.2851 38.1513 30.6727 39.6714 29.8868L41.9736 28.6966C42.2469 28.5554 42.3451 28.3203 42.3793 28.1927C42.4134 28.0652 42.446 27.8125 42.28 27.5535L40.8813 25.3717C39.9577 23.931 39.9577 22.0691 40.8813 20.6284L42.28 18.4467C42.4461 18.1876 42.4134 17.935 42.3793 17.8075C42.3451 17.6799 42.2469 17.4448 41.9736 17.3035L39.6714 16.1134C38.1512 15.3275 37.2203 13.7152 37.2997 12.0055L37.4202 9.41664C37.4345 9.10936 37.2799 8.90684 37.1866 8.81349C37.0932 8.72004 36.8923 8.56613 36.5833 8.57988L33.9945 8.70028C32.285 8.77979 30.6723 7.84887 29.8865 6.32855L28.6967 4.02637C28.5554 3.75305 28.3204 3.65494 28.1928 3.6207C28.065 3.58647 27.8125 3.55395 27.5536 3.71999L25.3717 5.11874C23.931 6.04238 22.0691 6.04238 20.6284 5.11874L18.4466 3.72007C18.1876 3.55404 17.9351 3.58656 17.8074 3.62079C17.6798 3.65493 17.4448 3.75314 17.3035 4.02637L16.1134 6.32864C15.3275 7.84887 13.715 8.77916 12.0054 8.70028L9.41664 8.57988C9.11097 8.56532 8.90684 8.72013 8.8134 8.81349C8.72005 8.90684 8.56551 9.10936 8.57979 9.41673L8.70028 12.0055C8.7797 13.7152 7.8487 15.3276 6.32864 16.1135L4.02637 17.3036C3.75305 17.4449 3.65494 17.68 3.6207 17.8076C3.58656 17.9351 3.55404 18.1877 3.71999 18.4468L5.11865 20.6285C6.0423 22.0693 6.0423 23.9312 5.11865 25.3718L3.71999 27.5536C3.55395 27.8126 3.58656 28.0653 3.6207 28.1928C3.65494 28.3204 3.75305 28.5555 4.02637 28.6967L6.32864 29.8869C7.84879 30.6728 8.7797 32.2851 8.70028 33.9947L8.57979 36.5836C8.56551 36.8909 8.72005 37.0934 8.8134 37.1868C8.90675 37.2802 9.10819 37.4341 9.41673 37.4204L12.0055 37.3C12.0732 37.2968 12.1409 37.2953 12.2084 37.2953Z" fill="url(#paint0_linear_122_4407)"/>
<defs>
<linearGradient id="paint0_linear_122_4407" x1="-13.1208" y1="9.87917" x2="34.5404" y2="57.5398" gradientUnits="userSpaceOnUse">
<stop stop-color="#00B0FE"/>
<stop offset="1" stop-color="#0166DC"/>
</linearGradient>
</defs>
</svg>
