<svg width="134" height="22" viewBox="0 0 134 22" fill="none" xmlns="http://www.w3.org/2000/svg">
<path d="M31.1996 11.3272C33.3535 11.3272 34.8924 10.2191 34.8924 8.37315V8.33219C34.8924 6.56811 33.5378 5.50103 31.2201 5.50103H26.7894V11.3272H31.1996ZM25.1694 4.82451C25.1694 4.37325 25.5388 4.00391 25.9696 4.00391H31.3437C33.1071 4.00391 34.523 4.53708 35.4255 5.4396C36.1225 6.13733 36.5328 7.14224 36.5328 8.27075V8.31098C36.5328 10.6704 34.9326 12.0447 32.6968 12.4754L36.2666 17.0707C36.4304 17.2542 36.5328 17.4393 36.5328 17.6646C36.5328 18.0961 36.1225 18.4654 35.7122 18.4654C35.3838 18.4654 35.1381 18.2804 34.9538 18.0339L30.9122 12.7833H26.7894V17.6448C26.7894 18.0961 26.4201 18.4654 25.9696 18.4654C25.5388 18.4654 25.1694 18.0961 25.1694 17.6448V4.82451Z" fill="white"/>
<path d="M39.793 17.5424V4.82451C39.793 4.37325 40.1623 4.00391 40.5931 4.00391H49.5159C49.9255 4.00391 50.2546 4.33229 50.2546 4.7426C50.2546 5.1529 49.9255 5.48129 49.5159 5.48129H41.413V10.383H48.5929C49.0032 10.383 49.3316 10.7318 49.3316 11.1217C49.3316 11.532 49.0032 11.8596 48.5929 11.8596H41.413V16.8856H49.6183C50.0286 16.8856 50.3562 17.214 50.3562 17.6236C50.3562 18.0339 50.0286 18.3623 49.6183 18.3623H40.5931C40.1623 18.3623 39.793 17.9929 39.793 17.5424Z" fill="white"/>
<path d="M57.9439 17.8465L52.4059 5.06718C52.3445 4.94431 52.3232 4.84191 52.3232 4.69783C52.3232 4.28826 52.6926 3.89844 53.1446 3.89844C53.5541 3.89844 53.8416 4.16466 53.9849 4.51353L58.9495 16.4101L63.9331 4.47257C64.0772 4.18587 64.3646 3.89844 64.7332 3.89844C65.1845 3.89844 65.5334 4.26778 65.5334 4.67808C65.5334 4.80096 65.5129 4.90335 65.4719 5.00574L59.9127 17.8465C59.7284 18.2568 59.441 18.5238 58.9693 18.5238H58.8873C58.4156 18.5238 58.1077 18.2568 57.9439 17.8465Z" fill="white"/>
<path d="M68.5266 4.71904C68.5266 4.26778 68.896 3.89844 69.3267 3.89844C69.7773 3.89844 70.1466 4.26778 70.1466 4.71904V17.6417C70.1466 18.093 69.7773 18.4623 69.3267 18.4623C68.896 18.4623 68.5266 18.093 68.5266 17.6417V4.71904Z" fill="white"/>
<path d="M74.146 17.5424V4.82451C74.146 4.37325 74.5153 4.00391 74.9454 4.00391H83.8689C84.2785 4.00391 84.6076 4.33229 84.6076 4.7426C84.6076 5.1529 84.2785 5.48129 83.8689 5.48129H75.766V10.383H82.9452C83.3562 10.383 83.6839 10.7318 83.6839 11.1217C83.6839 11.532 83.3562 11.8596 82.9452 11.8596H75.766V16.8856H83.9713C84.3809 16.8856 84.7093 17.214 84.7093 17.6236C84.7093 18.0339 84.3809 18.3623 83.9713 18.3623H74.9454C74.5153 18.3623 74.146 17.9929 74.146 17.5424Z" fill="white"/>
<path d="M86.8197 5.09156C86.7788 4.96869 86.7385 4.84582 86.7385 4.72222C86.7385 4.29144 87.1276 3.90234 87.5789 3.90234C87.9892 3.90234 88.2971 4.20952 88.42 4.57814L92.3789 15.984L96.1323 4.53791C96.2552 4.16856 96.5017 3.90234 96.9325 3.90234H97.0356C97.4451 3.90234 97.7121 4.16856 97.835 4.53791L101.588 15.984L105.568 4.53791C105.691 4.16856 105.958 3.90234 106.347 3.90234C106.778 3.90234 107.168 4.29144 107.168 4.70174C107.168 4.82461 107.106 4.96869 107.066 5.09156L102.47 17.8497C102.327 18.26 102.04 18.5474 101.629 18.5474H101.506C101.097 18.5474 100.809 18.26 100.666 17.8497L96.9325 6.81469L93.2193 17.8497C93.0766 18.26 92.7892 18.5474 92.3789 18.5474H92.256C91.8457 18.5474 91.5583 18.2805 91.415 17.8497L86.8197 5.09156Z" fill="white"/>
<path d="M109.196 16.6377C109.012 16.514 108.888 16.2881 108.888 16.0218C108.888 15.5706 109.238 15.2217 109.669 15.2217C109.874 15.2217 110.059 15.3036 110.16 15.406C111.514 16.5557 112.869 17.1094 114.694 17.1094C116.622 17.1094 117.894 16.0833 117.894 14.6681V14.6271C117.894 13.2938 117.176 12.5354 114.161 11.8991C110.858 11.1816 109.34 10.1145 109.34 7.75508V7.71486C109.34 5.45856 111.33 3.79688 114.058 3.79688C115.945 3.79688 117.319 4.26861 118.632 5.21209C118.796 5.33569 118.981 5.56096 118.981 5.86813C118.981 6.29965 118.632 6.64778 118.202 6.64778C118.017 6.64778 117.873 6.60682 117.73 6.50443C116.52 5.62239 115.35 5.25305 114.017 5.25305C112.15 5.25305 110.96 6.27844 110.96 7.57078V7.61173C110.96 8.96624 111.699 9.72468 114.858 10.4019C118.058 11.0997 119.534 12.2677 119.534 14.4625V14.5042C119.534 16.9653 117.484 18.5656 114.633 18.5656C112.54 18.5656 110.797 17.9088 109.196 16.6377Z" fill="white"/>
<path d="M121.961 16.7383C122.27 16.7383 122.5 16.9672 122.5 17.2773V17.507C122.5 17.8171 122.27 18.0577 121.961 18.0577C121.64 18.0577 121.41 17.8171 121.41 17.507V17.2773C121.41 16.9672 121.64 16.7383 121.961 16.7383Z" fill="white"/>
<path d="M124.428 12.4614C124.428 12.2208 124.623 12.0138 124.864 12.0138C125.116 12.0138 125.312 12.2084 125.312 12.4614V17.6125C125.312 17.8649 125.128 18.0601 124.875 18.0601C124.623 18.0601 124.428 17.8649 124.428 17.6125V12.4614ZM124.348 10.2132C124.348 9.92576 124.577 9.74219 124.864 9.74219C125.162 9.74219 125.391 9.92576 125.391 10.2132V10.3617C125.391 10.6374 125.162 10.8319 124.864 10.8319C124.577 10.8319 124.348 10.6374 124.348 10.3617V10.2132Z" fill="white"/>
<path d="M132.276 15.0622V15.0395C132.276 13.7662 131.324 12.7211 130.073 12.7211C128.788 12.7211 127.905 13.7662 127.905 15.0168V15.0395C127.905 16.3128 128.846 17.3448 130.097 17.3448C131.381 17.3448 132.276 16.3128 132.276 15.0622ZM126.999 15.0622V15.0395C126.999 13.3647 128.307 11.9414 130.097 11.9414C131.875 11.9414 133.183 13.3413 133.183 15.0168V15.0395C133.183 16.7144 131.864 18.1369 130.073 18.1369C128.296 18.1369 126.999 16.737 126.999 15.0622Z" fill="white"/>
<circle cx="12.202" cy="12.358" r="8.91659" fill="#FFE51C"/>
<circle cx="9.56502" cy="9.72127" r="8.91659" fill="#00E5D6"/>
<circle cx="10.8836" cy="11.0416" r="8.91659" fill="white"/>
<path fill-rule="evenodd" clip-rule="evenodd" d="M10.8836 19.9582C15.8081 19.9582 19.8002 15.9661 19.8002 11.0416C19.8002 6.11716 15.8082 2.12511 10.8838 2.125C10.8839 2.125 10.884 2.125 10.884 2.125C15.8091 2.125 19.8017 6.11758 19.8017 11.0427C19.8017 15.967 15.8091 19.9596 10.884 19.9596C6.13735 19.9596 2.2564 16.2499 1.98255 11.5719C2.2569 16.2495 6.13716 19.9582 10.8836 19.9582ZM1.98255 11.5719C1.97226 11.3964 1.96704 11.2196 1.96704 11.0416C1.96704 6.11709 5.95913 2.125 10.8836 2.125C10.8837 2.125 10.8838 2.125 10.8838 2.125C5.95957 2.12511 1.9671 6.11765 1.9671 11.0427C1.9671 11.2203 1.9723 11.3968 1.98255 11.5719ZM7.91393 11.8494C8.16332 12.0359 8.26718 12.3591 8.17356 12.6554C8.0761 12.9643 7.94109 13.3918 7.79224 13.8632C7.5524 14.6228 7.27663 15.4961 7.06407 16.1704C7.0158 16.3225 7.07211 16.4885 7.20303 16.5807C7.33468 16.6721 7.50947 16.6677 7.636 16.5697C8.50488 15.8983 9.7665 14.9226 10.4299 14.4092C10.6932 14.2066 11.0596 14.2059 11.3229 14.4077C11.5538 14.585 11.8572 14.8179 12.1914 15.0745C12.8269 15.5623 13.574 16.1358 14.1482 16.5763C14.2747 16.6735 14.4495 16.6772 14.5804 16.5858C14.7113 16.4944 14.7677 16.3283 14.7194 16.1755C14.3742 15.0865 13.8637 13.4738 13.6092 12.6693C13.5148 12.373 13.6179 12.0505 13.8659 11.864C14.5048 11.3832 15.7482 10.4465 16.6179 9.79132L16.6985 9.73058C16.8243 9.63624 16.8748 9.47168 16.825 9.32247C16.7753 9.17327 16.6356 9.07308 16.4783 9.07308H13.0811C12.7666 9.07308 12.4872 8.87195 12.387 8.57355C12.1179 7.76684 11.5803 6.16074 11.2241 5.09731C11.1744 4.94811 11.0347 4.84718 10.8767 4.84718C10.7195 4.84791 10.5798 4.94884 10.5308 5.09805C10.1783 6.16074 9.64729 7.76464 9.38033 8.57135C9.28087 8.87122 9.00148 9.07308 8.68626 9.07308H5.29706C5.13981 9.07308 4.99939 9.17401 4.94966 9.32321C4.90065 9.47314 4.95185 9.6377 5.07838 9.73205C5.53428 10.0723 6.10639 10.4996 6.64317 10.9005C7.13544 11.2681 7.59799 11.6136 7.91393 11.8494Z" fill="#231526"/>
</svg>
