<svg width="44" height="44" viewBox="0 0 44 44" fill="none" xmlns="http://www.w3.org/2000/svg">
<path d="M9.625 20.625C7.4377 20.6274 5.34068 21.4974 3.79402 23.044C2.24737 24.5907 1.3774 26.6877 1.375 28.875C1.42555 31.5792 2.13983 34.2296 3.45502 36.5931C4.77021 38.9565 6.64601 40.9605 8.91743 42.4289C9.13115 42.5572 9.37573 42.625 9.625 42.625C9.87427 42.625 10.1188 42.5572 10.3326 42.4289C12.604 40.9605 14.4798 38.9565 15.795 36.5931C17.1102 34.2296 17.8244 31.5792 17.875 28.875C17.8726 26.6877 17.0026 24.5907 15.456 23.044C13.9093 21.4974 11.8123 20.6274 9.625 20.625ZM9.625 31.625C9.0811 31.625 8.54942 31.4637 8.09718 31.1615C7.64495 30.8594 7.29247 30.4299 7.08433 29.9274C6.87619 29.4249 6.82173 28.8719 6.92784 28.3385C7.03395 27.8051 7.29586 27.3151 7.68046 26.9305C8.06505 26.5459 8.55505 26.2839 9.0885 26.1778C9.62195 26.0717 10.1749 26.1262 10.6774 26.3343C11.1799 26.5425 11.6094 26.8949 11.9115 27.3472C12.2137 27.7994 12.375 28.3311 12.375 28.875C12.3743 29.6041 12.0843 30.3032 11.5687 30.8187C11.0532 31.3343 10.3541 31.6243 9.625 31.625Z" fill="url(#paint0_linear_122_4416)"/>
<path d="M34.375 1.375C32.1877 1.3774 30.0907 2.24737 28.544 3.79402C26.9974 5.34068 26.1274 7.4377 26.125 9.625C26.1756 12.3292 26.8898 14.9796 28.205 17.3431C29.5202 19.7065 31.396 21.7105 33.6674 23.1789C33.8812 23.3072 34.1257 23.375 34.375 23.375C34.6243 23.375 34.8688 23.3072 35.0826 23.1789C37.354 21.7105 39.2298 19.7065 40.545 17.3431C41.8602 14.9796 42.5744 12.3292 42.625 9.625C42.6226 7.4377 41.7526 5.34068 40.206 3.79402C38.6593 2.24737 36.5623 1.3774 34.375 1.375ZM34.375 12.375C33.8311 12.375 33.2994 12.2137 32.8472 11.9115C32.3949 11.6094 32.0425 11.1799 31.8343 10.6774C31.6262 10.1749 31.5717 9.62195 31.6778 9.0885C31.7839 8.55505 32.0459 8.06505 32.4305 7.68046C32.8151 7.29586 33.3051 7.03395 33.8385 6.92784C34.3719 6.82173 34.9249 6.87619 35.4274 7.08433C35.9299 7.29247 36.3594 7.64495 36.6615 8.09718C36.9637 8.54942 37.125 9.0811 37.125 9.625C37.1243 10.3541 36.8343 11.0532 36.3187 11.5687C35.8032 12.0843 35.1041 12.3743 34.375 12.375Z" fill="url(#paint1_linear_122_4416)"/>
<path d="M39.8747 35.75C39.874 37.5732 39.1495 39.3215 37.8603 40.6106C36.5711 41.8998 34.8228 42.6243 32.9997 42.625H14.4922C15.3884 41.7791 16.2118 40.8592 16.9534 39.875H32.9997C34.0937 39.875 35.1429 39.4404 35.9165 38.6668C36.6901 37.8932 37.1247 36.844 37.1247 35.75C37.1247 34.656 36.6901 33.6068 35.9165 32.8332C35.1429 32.0596 34.0937 31.625 32.9997 31.625H26.1247C24.666 31.625 23.2671 31.0455 22.2356 30.0141C21.2042 28.9826 20.6247 27.5837 20.6247 26.125C20.6247 24.6663 21.2042 23.2674 22.2356 22.2359C23.2671 21.2045 24.666 20.625 26.1247 20.625H27.0459C27.7876 21.6092 28.6109 22.5291 29.5072 23.375H26.1247C25.3953 23.375 24.6959 23.6647 24.1801 24.1805C23.6644 24.6962 23.3747 25.3957 23.3747 26.125C23.3747 26.8543 23.6644 27.5538 24.1801 28.0695C24.6959 28.5853 25.3953 28.875 26.1247 28.875H32.9997C34.8228 28.8757 36.5711 29.6002 37.8603 30.8894C39.1495 32.1785 39.874 33.9268 39.8747 35.75Z" fill="url(#paint2_linear_122_4416)"/>
<defs>
<linearGradient id="paint0_linear_122_4416" x1="-3.3314" y1="25.3498" x2="18.5512" y2="41.7617" gradientUnits="userSpaceOnUse">
<stop stop-color="#1DA69A"/>
<stop offset="1" stop-color="#52FFF0"/>
</linearGradient>
<linearGradient id="paint1_linear_122_4416" x1="21.4186" y1="6.09979" x2="43.3012" y2="22.5117" gradientUnits="userSpaceOnUse">
<stop stop-color="#1DA69A"/>
<stop offset="1" stop-color="#52FFF0"/>
</linearGradient>
<linearGradient id="paint2_linear_122_4416" x1="7.25218" y1="25.3498" x2="29.8154" y2="51.3821" gradientUnits="userSpaceOnUse">
<stop stop-color="#1DA69A"/>
<stop offset="1" stop-color="#52FFF0"/>
</linearGradient>
</defs>
</svg>
