<svg width="24" height="22" viewBox="0 0 24 22" fill="none" xmlns="http://www.w3.org/2000/svg">
<path d="M12.9137 1.51367C11.8134 1.51367 10.8132 1.86375 9.96299 2.41388C9.11279 1.86375 8.06255 1.51367 6.96229 1.51367C3.96159 1.51367 1.56104 3.96424 1.56104 6.91493C1.56104 13.0163 9.96299 17.2173 9.96299 17.2173C9.96299 17.2173 18.3649 12.9663 18.3649 6.91493C18.3649 3.96424 15.9144 1.51367 12.9137 1.51367Z" fill="#4FBF9F"/>
<path d="M9.9631 17.8176L9.76306 17.7176C9.36296 17.5175 1.06104 13.3165 1.06104 6.91504C1.06104 3.66429 3.71165 1.01367 6.96241 1.01367C8.01265 1.01367 9.01288 1.31374 9.91309 1.81386C10.8133 1.31374 11.8135 1.01367 12.8638 1.01367C16.1645 1.01367 18.8652 3.66429 18.8652 6.91504C18.8652 13.2165 10.5132 17.5175 10.1631 17.6675L9.9631 17.8176ZM6.96241 2.0139C4.26178 2.0139 2.06127 4.21442 2.06127 6.91504C2.06127 12.1163 8.6628 15.9171 9.9631 16.6673C11.2634 15.9671 17.8649 12.0662 17.8649 6.91504C17.8649 4.21442 15.6644 2.0139 12.9638 2.0139C12.0136 2.0139 11.0634 2.31397 10.2632 2.81409L9.9631 3.01414L9.66303 2.81409C8.86285 2.31397 7.91263 2.0139 6.96241 2.0139Z" fill="#193651"/>
<path d="M18.365 7.41602C17.4648 7.41602 16.6146 7.66607 15.9644 8.11618C15.2643 7.66607 14.4141 7.41602 13.5639 7.41602C11.1133 7.41602 9.16284 9.41648 9.16284 11.817C9.16284 16.8182 16.0144 20.219 16.0144 20.219C16.0144 20.219 22.866 16.7682 22.866 11.817C22.766 9.41648 20.8155 7.41602 18.365 7.41602Z" fill="white"/>
<path d="M15.9142 20.7692L15.7142 20.6692C15.4141 20.5192 8.61255 17.0684 8.61255 11.8172C8.61255 9.11653 10.8131 6.91602 13.5137 6.91602C14.3639 6.91602 15.2141 7.11606 15.9142 7.56617C16.6644 7.16607 17.4646 6.91602 18.3148 6.91602C21.0154 6.91602 23.2159 9.11653 23.2159 11.8172C23.266 17.0184 16.4644 20.5192 16.1643 20.6692L15.9142 20.7692ZM13.5137 7.91625C11.3632 7.91625 9.61278 9.66665 9.61278 11.8172C9.61278 15.9681 14.814 19.0188 15.9643 19.619C17.1145 18.9688 22.3157 15.8681 22.3157 11.8172C22.3157 9.66665 20.5653 7.91625 18.4148 7.91625C17.6647 7.91625 16.9145 8.11629 16.2643 8.5664L16.0143 8.76645L15.6642 8.5664C15.014 8.16631 14.2639 7.91625 13.5137 7.91625Z" fill="#193651"/>
<path d="M12.9137 1.51367C11.8134 1.51367 10.8132 1.86375 9.96299 2.41388C9.11279 1.86375 8.06255 1.51367 6.96229 1.51367C3.96159 1.51367 1.56104 3.96424 1.56104 6.91493C1.56104 13.0163 9.96299 17.2173 9.96299 17.2173C9.96299 17.2173 18.3649 12.9663 18.3649 6.91493C18.3649 3.96424 15.9144 1.51367 12.9137 1.51367Z" fill="#6F6B70"/>
<path d="M18.365 7.41602C17.4648 7.41602 16.6146 7.66607 15.9644 8.11618C15.2643 7.66607 14.4141 7.41602 13.5639 7.41602C11.1133 7.41602 9.16284 9.41648 9.16284 11.817C9.16284 16.8182 16.0144 20.219 16.0144 20.219C16.0144 20.219 22.866 16.7682 22.866 11.817C22.766 9.41648 20.8155 7.41602 18.365 7.41602Z" fill="white"/>
<path d="M18.8652 6.96505C18.8652 3.66429 16.1645 1.01367 12.9138 1.01367C11.8635 1.01367 10.8633 1.31374 9.9631 1.81386C9.06289 1.31374 8.06266 1.01367 7.01242 1.01367C3.71165 1.01367 1.06104 3.66429 1.06104 6.91504C1.06104 13.2665 9.36296 17.4675 9.71304 17.6675L9.91309 17.7676L10.1131 17.6675C10.1631 17.6175 10.5132 17.4675 10.9633 17.1674C12.9638 19.2679 15.4644 20.5682 15.6144 20.6682L15.8145 20.7683L16.0145 20.6682C16.4646 20.5182 23.2662 17.0174 23.2662 11.8662C23.2662 9.3156 21.3157 7.21511 18.8652 6.96505ZM9.9631 16.6673C8.6628 15.9671 2.06127 12.1162 2.06127 6.91504C2.06127 4.21442 4.26178 2.0139 6.96241 2.0139C7.91263 2.0139 8.86285 2.31397 9.66303 2.81409L9.9631 3.01414L10.2132 2.81409C11.0133 2.31397 11.9636 2.0139 12.9138 2.0139C15.6144 2.0139 17.8149 4.21442 17.8149 6.91504C17.1648 6.96505 16.5146 7.1651 15.9145 7.51518C15.1643 7.11509 14.3641 6.86503 13.5139 6.86503C10.8133 6.86503 8.61279 9.06554 8.61279 11.7662C8.61279 13.5166 9.36296 15.0669 10.4132 16.3672C10.2132 16.5173 10.0631 16.6173 9.9631 16.6673ZM15.9145 19.668C14.7642 19.0179 9.56301 15.9671 9.56301 11.8662C9.56301 9.71569 11.3134 7.96529 13.4639 7.96529C14.2141 7.96529 14.9643 8.16533 15.6144 8.61544L15.8645 8.81548L16.1145 8.61544C16.7647 8.21534 17.5149 7.96529 18.265 7.96529C20.4155 7.96529 22.1659 9.71569 22.1659 11.8662C22.266 15.9171 17.0648 19.0179 15.9145 19.668Z" fill="#37273B" stroke="#37273B" stroke-width="0.5"/>
</svg>
