<svg width="47" height="40" viewBox="0 0 47 40" fill="none" xmlns="http://www.w3.org/2000/svg">
<path d="M45.486 17.3059C44.5178 16.0232 43.1947 15.0958 41.6596 14.6244C40.6902 14.3265 39.6632 14.871 39.3655 15.8402C39.0678 16.8095 39.6122 17.8366 40.5814 18.1343C42.2244 18.639 43.3281 20.1223 43.3281 21.8253C43.3281 23.956 41.5748 25.6895 39.4197 25.6895H34.8145C33.9208 20.2512 29.1874 16.0891 23.5 16.0891C17.8126 16.0891 13.0793 20.2511 12.1856 25.6895H9.01858C6.07044 25.6895 3.67188 23.3158 3.67188 20.3981C3.67188 18.1273 5.1308 16.1127 7.30217 15.3849C8.07858 15.1246 8.58879 14.3816 8.5529 13.5636C8.54739 13.4399 8.54473 13.3147 8.54473 13.1914C8.54473 8.56521 12.3476 4.80145 17.0221 4.80145C18.72 4.80145 20.3577 5.29605 21.7582 6.23173C22.4543 6.69678 23.3767 6.63215 24.001 6.07448C25.7301 4.53009 27.9657 3.67969 30.2961 3.67969C33.5009 3.67969 36.4555 5.27365 38.1996 7.94356C38.7543 8.79259 39.892 9.03108 40.7408 8.47653C41.5897 7.92199 41.8283 6.78426 41.2738 5.93541C38.849 2.2237 34.7453 0.0078125 30.2961 0.0078125C27.5206 0.0078125 24.8403 0.878598 22.6172 2.4822C20.8965 1.59397 18.9867 1.12957 17.022 1.12957C10.5829 1.12957 5.29778 6.12864 4.89718 12.4227C1.92168 13.9391 0 16.9981 0 20.3981C0 25.3404 4.04576 29.3613 9.01858 29.3613H12.1758C13.0445 34.8288 17.7918 39.0215 23.5 39.0215C29.2082 39.0215 33.9555 34.8288 34.8242 29.3612H39.4197C43.5995 29.3612 47 25.9805 47 21.8252C47 20.181 46.4765 18.6183 45.486 17.3059ZM23.5 19.7609C25.0056 19.7609 26.4127 20.19 27.6057 20.9323L16.8769 31.661C16.1347 30.468 15.7056 29.0608 15.7056 27.5553C15.7056 23.2575 19.2022 19.7609 23.5 19.7609ZM23.5 35.3496C22.0356 35.3496 20.6642 34.9436 19.4924 34.2383L30.1832 23.5477C30.8885 24.7194 31.2945 26.0908 31.2945 27.5552C31.2944 31.8532 27.7978 35.3496 23.5 35.3496Z" fill="url(#paint0_linear_122_4405)"/>
<defs>
<linearGradient id="paint0_linear_122_4405" x1="0" y1="19.5146" x2="47" y2="19.5146" gradientUnits="userSpaceOnUse">
<stop stop-color="#00F2FE"/>
<stop offset="0.0208" stop-color="#03EFFE"/>
<stop offset="0.2931" stop-color="#24D2FE"/>
<stop offset="0.5538" stop-color="#3CBDFE"/>
<stop offset="0.7956" stop-color="#4AB0FE"/>
<stop offset="1" stop-color="#4FACFE"/>
</linearGradient>
</defs>
</svg>
